<svg version="1.0" xmlns="http://www.w3.org/2000/svg" width="512.000000" height="512.000000" viewBox="0 0 512.000000 512.000000" preserveAspectRatio="xMidYMid meet">
  <metadata>
    <rdf:RDF xmlns:rdf="http://www.w3.org/1999/02/22-rdf-syntax-ns#" xmlns:rdfs="http://www.w3.org/2000/01/rdf-schema#" xmlns:dc="http://purl.org/dc/elements/1.1/">
      <rdf:Description dc:format="image/svg+xml" dc:Label="1" dc:ContentProducer="001191330110MACRLGPT8B00000" dc:ProduceID="457850999" dc:ReservedCode1="REoijGzCHV1/3SAGlnkec8BD87PkOM+A9uMjI155kXE=" dc:ContentPropagator="001191330110MACRLGPT8B00000" dc:PropagateID="457850999" dc:ReservedCode2="REoijGzCHV1/3SAGlnkec8BD87PkOM+A9uMjI155kXE="/>
    </rdf:RDF>
  </metadata>
  <g transform="translate(0.000000,512.000000) scale(0.100000,-0.100000)" fill="#000000" stroke="none">
    <path d="M2203 4055 c-484 -243 -952 -500 -1014 -557 -35 -31 -36 -57 -6 -118 17 -34 30 -48 57 -56 28 -9 36 -18 42 -45 20 -98 39 -351 48 -645 5 -181 12 -349 16 -374 l5 -46 -143 -13 c-80 -7 -157 -19 -175 -28 -71 -33 -83 -154 -29 -284 6 -13 -2 -17 -43 -22 -59 -7 -136 -39 -168 -69 -50 -46 -41 -129 20 -195 l41 -44 -20 -32 c-26 -43 -26 -157 0 -207 30 -57 76 -99 135 -121 51 -19 75 -20 394 -19 187 0 357 3 378 6 36 6 38 4 57 -32 37 -72 90 -109 202 -141 60 -17 110 -18 645 -16 484 1 653 5 1025 27 386 22 456 28 531 49 48 13 99 31 114 41 40 26 67 96 73 191 6 108 -10 172 -65 252 -37 54 -43 69 -38 97 5 24 -1 49 -23 97 -16 35 -37 88 -48 118 -10 29 -31 64 -47 77 -26 22 -28 27 -18 56 16 46 13 134 -5 170 -9 18 -39 55 -66 84 l-49 52 -145 7 -146 7 7 27 c26 98 47 299 52 487 5 192 -1 302 -23 445 -6 36 -6 36 36 43 23 4 52 17 65 30 30 30 53 126 37 160 -7 15 -62 52 -164 109 -238 132 -377 199 -676 323 -152 64 -312 134 -355 155 -43 21 -92 39 -108 39 -16 0 -29 5 -29 10 0 12 -59 50 -77 50 -7 0 -142 -65 -300 -145z m437 -92 c62 -41 206 -113 455 -228 271 -125 467 -224 461 -234 -3 -4 -99 -11 -213 -14 -203 -7 -311 -11 -987 -42 -372 -17 -885 -20 -871 -6 13 13 507 290 798 447 125 68 238 130 250 139 20 14 23 13 42 -9 11 -13 40 -37 65 -53z m923 -675 c10 -41 55 -360 66 -468 6 -58 12 -194 14 -302 l4 -198 -68 0 c-38 0 -69 1 -69 3 0 1 7 20 15 42 26 72 16 531 -15 704 -18 98 44 91 -664 85 -409 -3 -676 -10 -781 -19 -88 -8 -209 -17 -270 -21 -64 -4 -119 -12 -132 -20 -53 -33 -96 -273 -97 -544 -1 -96 2 -207 6 -246 l8 -71 -73 -6 c-39 -3 -72 -4 -72 -3 -4 12 17 899 23 970 l7 100 673 1 c370 1 675 5 679 8 3 4 172 7 374 7 l367 0 5 -22z m-194 -293 c2 -2 6 -23 8 -47 l5 -43 -92 -2 c-128 -2 -224 -21 -250 -48 -28 -29 -42 -175 -38 -385 l3 -165 -116 -3 -116 -3 4 98 c5 90 -3 167 -36 391 -5 35 -16 70 -23 79 -52 63 -251 56 -359 -13 -44 -27 -93 -95 -123 -168 -28 -69 -30 -296 -3 -365 10 -24 16 -45 15 -46 -2 -1 -49 -5 -105 -9 l-101 -7 18 36 c14 28 18 59 18 153 0 83 5 130 16 161 22 61 20 99 -8 136 -29 38 -127 92 -184 101 l-43 7 3 80 3 80 750 -7 c412 -4 752 -9 754 -11z m-1612 -257 c7 -8 49 -27 93 -42 93 -33 86 -19 95 -196 7 -128 20 -178 56 -216 l20 -21 -83 -6 c-46 -4 -132 -9 -192 -13 l-109 -7 6 204 c7 244 44 491 84 552 4 7 10 -45 13 -114 3 -77 10 -132 17 -141z m834 0 c7 -14 16 -96 20 -198 4 -96 12 -190 18 -209 6 -19 9 -36 7 -38 -2 -2 -72 -6 -155 -10 l-151 -6 5 89 c3 49 7 121 10 159 10 158 71 235 187 235 39 0 49 -4 59 -22z m809 -35 c0 -86 19 -276 34 -332 l12 -48 -95 -7 c-53 -3 -125 -6 -159 -6 l-64 0 6 48 c3 26 11 106 17 177 13 165 23 203 52 210 12 3 58 6 102 8 44 2 83 4 88 5 4 1 7 -24 7 -55z m316 -520 c118 -7 112 -20 -11 -22 -311 -5 -664 -78 -673 -140 -3 -21 -1 -22 45 -16 84 10 401 25 532 26 69 0 188 6 264 12 148 13 145 14 131 -40 -7 -25 4 -24 -554 -48 -201 -9 -384 -18 -406 -21 l-42 -5 -4 69 c-2 51 -11 85 -34 130 l-31 62 337 0 c185 0 386 -3 446 -7z m-892 -115 c11 -15 16 -45 16 -90 l0 -67 -32 -6 c-170 -29 -266 -32 -460 -17 -178 14 -472 15 -912 2 -261 -8 -332 -7 -338 3 -13 18 -3 106 14 123 22 23 143 32 558 44 206 6 488 15 625 19 138 4 309 9 382 9 126 2 133 1 147 -20z m1240 -266 c25 -48 47 -139 40 -166 l-6 -26 -638 0 c-351 0 -652 3 -669 6 -24 5 -35 15 -46 42 -28 65 -30 63 108 87 122 21 395 42 777 60 179 9 336 17 350 19 62 8 70 6 84 -22z m-1774 -42 c63 -6 148 -16 189 -23 74 -13 74 -13 88 -52 7 -21 11 -40 8 -43 -2 -3 -42 1 -87 7 -46 6 -247 16 -448 22 -503 14 -865 1 -1024 -36 -53 -12 -62 -12 -77 1 -21 19 -55 82 -47 89 33 33 1115 60 1398 35z m-420 -220 c-36 -34 -90 -144 -97 -199 l-5 -39 -102 -7 c-55 -4 -222 -5 -371 -3 -300 3 -330 9 -362 71 -19 37 -12 103 14 127 21 21 146 45 313 60 122 12 593 28 622 21 15 -3 13 -8 -12 -31z m1033 -105 c-48 -86 -40 -202 18 -287 11 -14 19 -29 19 -32 0 -10 -374 -7 -675 5 -305 12 -300 11 -333 74 -19 36 -21 159 -3 193 30 56 144 71 591 81 173 4 336 8 362 9 l47 2 -26 -45z m1311 -17 c14 -44 17 -72 11 -113 -7 -60 -16 -68 -77 -78 -34 -5 -38 -3 -58 30 l-21 36 -102 -7 c-56 -3 -226 -9 -377 -12 -151 -3 -289 -7 -307 -10 -36 -5 -49 -27 -27 -49 13 -12 49 -15 197 -17 l182 -1 -249 -8 c-208 -7 -253 -6 -276 6 -84 43 -95 182 -20 250 21 19 40 20 479 25 251 3 494 6 541 5 l85 0 19 -57z"/>
    <path d="M2439 3850 c-19 -10 -52 -37 -72 -59 -34 -37 -37 -46 -37 -99 0 -75 25 -117 88 -144 69 -31 168 -35 209 -9 77 49 97 180 39 256 -53 69 -154 94 -227 55z"/>
    <path d="M3885 1749 c-49 -4 -209 -13 -355 -19 -146 -5 -332 -15 -415 -21 -284 -19 -345 -32 -302 -63 14 -11 136 -12 620 -9 651 6 647 5 647 58 0 50 -59 67 -195 54z"/>
    <path d="M3835 1410 c-319 -18 -484 -32 -580 -48 -82 -14 -100 -21 -103 -36 -4 -18 1 -19 89 -12 224 16 475 18 675 7 185 -11 214 -11 247 3 45 18 49 48 11 73 -32 21 -130 25 -339 13z"/>
  </g>
</svg>